<?xml version="1.0" standalone="no"?>
<!DOCTYPE svg PUBLIC "-//W3C//DTD SVG 20010904//EN"
 "http://www.w3.org/TR/2001/REC-SVG-20010904/DTD/svg10.dtd">
<svg version="1.0" xmlns="http://www.w3.org/2000/svg"
 width="2000.000000pt" height="2000.000000pt" viewBox="0 0 2000.000000 2000.000000"
 preserveAspectRatio="xMidYMid meet">
<metadata>
Created by potrace 1.14, written by Peter Selinger 2001-2017
</metadata>
<g transform="translate(0.000000,2000.000000) scale(0.100000,-0.100000)"
fill="#000000" stroke="none">
<path d="M7659 19889 c-195 -16 -397 -129 -532 -299 -67 -83 -128 -205 -147
-290 l-12 -55 -102 -33 c-526 -169 -1046 -476 -1487 -879 -263 -239 -512 -538
-709 -853 -53 -83 -104 -147 -184 -230 -513 -529 -857 -1115 -1046 -1782 -92
-324 -130 -581 -137 -934 l-6 -251 -121 -124 c-127 -131 -232 -263 -410 -516
-699 -997 -1117 -2023 -1246 -3063 -59 -477 -51 -1011 21 -1490 121 -804 431
-1620 911 -2399 l45 -74 -62 -81 c-89 -116 -171 -244 -240 -377 -58 -111 -64
-119 -165 -206 -422 -361 -698 -830 -814 -1382 -42 -197 -57 -350 -63 -641
-26 -1262 246 -2104 874 -2711 638 -616 1674 -973 3128 -1079 589 -42 1356
-42 1875 0 698 58 1299 185 1833 387 l118 44 217 -35 c896 -145 1817 -164
2777 -55 1067 120 2133 409 2840 769 267 136 388 218 533 362 161 159 291 349
409 595 59 125 66 134 116 166 89 58 203 155 284 243 73 79 85 87 194 137 648
298 1164 770 1437 1312 35 72 52 91 149 177 543 477 848 1108 903 1863 27 385
1 870 -65 1200 -335 1670 -1949 2527 -5035 2675 -129 7 -236 13 -238 15 -2 2
17 77 42 167 176 634 295 1297 342 1912 6 82 10 95 46 150 52 80 110 203 139
294 l23 72 111 83 c129 96 339 300 419 408 198 267 292 583 257 864 -39 317
-189 604 -461 876 -383 385 -945 677 -1634 848 -94 24 -168 48 -187 62 l-31
22 6 81 c37 496 -13 897 -161 1306 -371 1024 -1354 1795 -2718 2131 -350 86
-747 143 -1083 156 l-163 6 -32 61 c-38 73 -148 192 -233 252 -153 109 -334
158 -525 143z m156 -405 c104 -27 203 -98 251 -180 31 -53 27 -69 -32 -124
-133 -123 -417 -159 -586 -74 -60 30 -90 68 -81 103 11 49 45 104 96 158 60
64 100 90 175 114 71 22 102 23 177 3z m1010 -470 c1118 -101 2140 -553 2723
-1204 352 -394 553 -833 624 -1360 19 -139 15 -524 -5 -685 l-17 -130 -66 -96
c-766 -1123 -2082 -1808 -3684 -1919 -186 -13 -603 -13 -790 0 -752 52 -1439
228 -2005 514 -208 106 -341 187 -501 307 -270 201 -477 434 -605 677 l-43 82
1 222 c0 409 67 769 215 1168 56 154 189 433 274 577 458 781 1191 1381 2029
1662 l118 40 48 -43 c59 -53 170 -109 275 -138 68 -19 104 -22 259 -22 200 1
266 13 414 77 138 59 278 172 327 262 l19 36 115 -7 c63 -3 187 -12 275 -20z
m3770 -3709 c845 -183 1558 -623 1799 -1109 69 -140 91 -228 90 -371 0 -143
-16 -211 -79 -340 -197 -398 -740 -764 -1540 -1038 -1426 -488 -2981 -383
-4608 310 -265 113 -913 438 -959 482 -4 3 52 0 125 -8 180 -19 952 -21 1132
-3 845 85 1489 263 2140 592 333 168 599 341 890 577 151 123 442 412 567 563
99 120 234 298 264 349 13 22 24 29 38 26 12 -2 75 -16 141 -30z m-8327 -576
c243 -365 660 -707 1169 -961 l103 -51 -28 -32 c-15 -18 -71 -84 -125 -146
-440 -508 -760 -1096 -936 -1719 -191 -677 -211 -1437 -60 -2205 107 -543 294
-1081 556 -1603 64 -128 90 -188 82 -193 -7 -4 -37 -10 -68 -14 -241 -29 -655
-129 -960 -231 -123 -41 -225 -73 -226 -72 -14 15 -212 326 -282 443 -660
1100 -945 2254 -837 3395 102 1087 547 2162 1336 3230 104 141 207 255 219
242 3 -4 29 -41 57 -83z m1826 -1228 c149 -48 153 -50 284 -145 519 -379 1216
-763 1877 -1032 712 -289 1399 -465 2145 -546 180 -20 258 -22 640 -22 455 0
554 6 895 55 447 64 932 196 1373 375 101 41 186 74 189 74 7 0 -5 -168 -28
-399 -87 -867 -333 -1840 -724 -2861 -139 -364 -204 -510 -226 -510 -11 0
-140 8 -287 17 -181 11 -409 17 -707 17 -446 1 -582 -6 -936 -44 -881 -96
-1646 -332 -2278 -705 l-126 -74 -145 24 c-699 114 -1770 180 -2416 150 l-150
-8 -79 144 c-44 79 -116 223 -161 319 -331 709 -513 1412 -543 2087 -48 1103
302 2079 1049 2923 91 104 192 210 198 210 2 0 72 -22 156 -49z m7641 -3916
c993 -41 1925 -187 2618 -411 640 -207 1120 -481 1457 -830 383 -397 577 -861
631 -1507 16 -198 7 -780 -15 -912 -130 -793 -567 -1380 -1325 -1779 -113 -58
-303 -148 -307 -143 -1 1 8 65 21 142 138 819 46 1709 -246 2392 -182 426
-455 805 -753 1045 -389 314 -937 544 -1661 697 -279 59 -825 140 -1117 166
-43 4 -78 10 -78 13 0 3 42 111 94 241 113 283 240 634 322 890 3 10 26 12
112 7 59 -3 170 -8 247 -11z m-1700 -1466 c1873 -84 3035 -380 3623 -924 347
-322 626 -872 746 -1475 58 -288 70 -427 71 -800 0 -273 -4 -375 -18 -490 -75
-605 -250 -1104 -502 -1439 -92 -121 -193 -217 -309 -293 -122 -79 -453 -242
-656 -322 -1249 -491 -2885 -709 -4335 -575 -121 11 -242 23 -268 27 l-49 7
91 63 c224 155 466 376 615 562 294 368 489 819 561 1300 26 180 38 560 26
823 -6 127 -14 255 -17 283 l-7 52 139 6 c282 12 494 27 669 47 759 84 1485
276 2160 569 176 76 586 286 630 323 145 119 62 347 -126 347 -45 0 -70 -10
-218 -90 -649 -349 -1421 -600 -2215 -720 -331 -50 -767 -84 -990 -78 l-118 3
-38 125 c-108 365 -272 665 -520 954 -427 496 -1112 881 -1995 1121 -93 25
-177 48 -185 51 -19 7 102 64 315 149 558 221 1205 354 1920 395 337 19 558
19 1000 -1z m-5635 -639 c2528 -107 4022 -683 4569 -1762 149 -295 230 -615
262 -1037 17 -235 7 -695 -19 -866 -189 -1224 -1172 -1993 -2887 -2259 -504
-78 -1096 -110 -1750 -95 -1889 45 -3093 437 -3709 1209 -264 332 -437 767
-510 1285 -57 408 -67 1028 -21 1340 142 967 817 1631 2000 1969 430 122 790
180 1385 219 111 8 465 6 680 -3z"/>
<path d="M8385 18866 c-38 -17 -90 -72 -104 -109 -25 -66 -6 -164 42 -215 35
-37 67 -50 173 -67 464 -74 1015 -304 1443 -602 255 -178 559 -458 743 -683
362 -445 614 -930 797 -1540 41 -134 55 -168 82 -196 92 -95 250 -80 313 29
51 87 44 134 -64 459 -246 739 -624 1352 -1137 1848 -501 484 -1144 844 -1818
1020 -247 64 -409 83 -470 56z"/>
<path d="M7060 18576 c-142 -40 -416 -181 -615 -317 -320 -218 -633 -525 -877
-860 -363 -498 -637 -1131 -787 -1819 -53 -245 -65 -330 -52 -378 15 -54 71
-117 119 -133 53 -18 124 -13 171 11 68 34 86 74 126 275 157 785 435 1418
851 1940 104 130 364 393 484 489 198 158 465 318 645 387 110 42 148 69 175
124 46 94 8 220 -78 264 -52 26 -109 32 -162 17z"/>
<path d="M7818 18420 c-69 -37 -117 -133 -103 -203 4 -18 51 -120 104 -227 53
-107 116 -244 140 -305 228 -578 368 -1311 412 -2160 14 -259 7 -971 -11
-1216 -7 -91 -10 -183 -6 -203 9 -49 66 -111 121 -132 93 -35 204 4 247 88 41
78 63 522 55 1107 -6 446 -12 568 -47 913 -82 819 -266 1520 -542 2073 -99
197 -123 234 -173 262 -52 30 -144 31 -197 3z"/>
<path d="M11530 11336 c-312 -69 -425 -452 -200 -676 194 -195 523 -141 644
106 118 241 -31 531 -294 573 -77 13 -80 13 -150 -3z"/>
<path d="M8057 10960 c-63 -16 -137 -59 -187 -110 -195 -194 -140 -515 111
-646 50 -27 62 -29 169 -29 104 0 121 3 172 27 164 77 261 260 229 434 -24
131 -108 240 -226 296 -53 24 -82 31 -148 34 -45 2 -99 -1 -120 -6z"/>
<path d="M10794 10132 c-17 -9 -63 -46 -102 -81 -291 -263 -604 -370 -918
-316 -162 29 -309 89 -468 193 -74 49 -82 52 -143 52 -73 0 -107 -14 -150 -64
-60 -67 -68 -163 -19 -236 66 -100 407 -271 651 -326 109 -25 397 -30 515 -10
274 48 571 202 801 415 98 91 119 127 119 203 0 69 -40 138 -99 168 -51 25
-143 27 -187 2z"/>
<path d="M13890 9134 c-175 -76 -155 -330 30 -373 25 -6 144 -22 265 -36 1341
-158 2147 -363 2600 -662 187 -124 288 -234 366 -400 40 -85 54 -106 89 -129
91 -60 211 -36 275 55 62 87 31 217 -96 410 -218 331 -664 595 -1326 785 -447
128 -935 218 -1717 316 -219 27 -410 50 -425 50 -14 -1 -42 -8 -61 -16z"/>
<path d="M5439 6970 c-314 -9 -330 -12 -391 -77 -80 -84 -59 -231 40 -294 l46
-29 461 6 c472 7 810 -2 1200 -32 1276 -96 2345 -393 2734 -759 112 -106 201
-261 201 -350 0 -41 37 -103 81 -135 98 -71 234 -38 289 71 57 112 -14 357
-160 550 -117 156 -329 323 -549 434 -854 428 -2339 659 -3952 615z"/>
</g>
</svg>
