<?xml version="1.0" standalone="no"?>
<!DOCTYPE svg PUBLIC "-//W3C//DTD SVG 20010904//EN"
 "http://www.w3.org/TR/2001/REC-SVG-20010904/DTD/svg10.dtd">
<svg version="1.0" xmlns="http://www.w3.org/2000/svg"
 width="2000.000000pt" height="2000.000000pt" viewBox="0 0 2000.000000 2000.000000"
 preserveAspectRatio="xMidYMid meet">
<metadata>
Created by potrace 1.14, written by Peter Selinger 2001-2017
</metadata>
<g transform="translate(0.000000,2000.000000) scale(0.100000,-0.100000)"
fill="#000000" stroke="none">
<path d="M7677 19894 c-1 -1 -26 -5 -55 -9 -107 -13 -253 -76 -347 -149 -147
-113 -263 -286 -294 -436 l-11 -55 -93 -29 c-98 -31 -265 -94 -334 -126 -24
-11 -45 -20 -48 -20 -7 0 -229 -111 -308 -154 -343 -187 -647 -417 -936 -707
-136 -136 -124 -122 -352 -397 -11 -12 -19 -25 -19 -27 0 -3 -9 -15 -19 -27
-24 -25 -176 -250 -224 -330 -18 -32 -87 -113 -153 -180 -386 -397 -670 -818
-872 -1293 -133 -313 -246 -713 -278 -980 -3 -33 -8 -69 -10 -80 -2 -11 -6
-54 -10 -95 -3 -41 -7 -93 -10 -115 -4 -40 -6 -377 -2 -392 1 -4 -54 -65 -123
-134 -123 -123 -261 -298 -435 -549 -458 -661 -786 -1314 -997 -1990 -41 -131
-103 -353 -113 -405 -2 -11 -6 -29 -8 -40 -22 -98 -65 -309 -70 -345 -4 -25
-8 -56 -10 -70 -2 -14 -6 -45 -10 -70 -12 -73 -15 -92 -21 -155 -4 -33 -8 -76
-10 -95 -15 -143 -20 -265 -20 -535 1 -277 5 -385 20 -520 3 -22 7 -61 10 -88
11 -106 17 -148 40 -287 14 -80 34 -188 45 -240 12 -52 23 -106 26 -120 3 -14
16 -68 30 -120 13 -52 27 -103 29 -114 2 -10 25 -87 50 -170 72 -235 192 -547
296 -771 18 -38 33 -72 34 -75 1 -4 81 -166 104 -210 4 -8 12 -24 18 -35 17
-35 86 -158 115 -208 15 -26 28 -50 28 -52 0 -3 32 -55 151 -249 l17 -28 -63
-82 c-89 -116 -168 -239 -239 -375 -54 -104 -69 -125 -126 -172 -85 -69 -272
-257 -339 -339 -29 -36 -60 -74 -69 -85 -45 -55 -165 -245 -213 -336 -86 -167
-173 -392 -204 -529 0 -3 -6 -27 -13 -55 -6 -27 -14 -61 -16 -75 -3 -14 -11
-59 -19 -100 -15 -76 -22 -132 -34 -275 -15 -169 -6 -906 12 -975 2 -8 6 -52
10 -97 3 -46 8 -93 11 -105 2 -13 6 -43 9 -68 5 -41 9 -68 21 -140 3 -14 9
-48 15 -76 5 -28 12 -61 14 -75 3 -13 18 -78 35 -143 103 -399 273 -751 508
-1047 73 -93 271 -295 371 -380 191 -161 492 -344 761 -463 156 -69 503 -194
585 -212 6 -1 51 -13 100 -27 233 -65 638 -147 845 -172 25 -3 56 -7 70 -10
14 -2 46 -7 73 -10 101 -11 143 -16 177 -21 19 -2 62 -6 95 -9 33 -3 85 -7
115 -10 179 -17 348 -28 650 -41 168 -7 829 -7 960 0 58 3 148 8 200 11 127 7
308 21 380 30 19 2 64 7 100 10 36 3 76 8 90 10 14 2 49 7 79 10 30 4 62 8 71
10 9 2 41 6 70 10 29 4 60 8 69 10 9 1 36 6 61 10 25 4 54 9 65 11 11 3 36 7
55 10 19 3 98 19 175 36 77 16 151 32 165 35 146 30 520 145 695 215 85 34
107 39 145 33 25 -4 56 -8 70 -10 23 -3 52 -9 106 -19 24 -5 66 -11 139 -22
28 -3 59 -8 70 -10 11 -3 43 -7 70 -9 28 -3 61 -7 75 -10 35 -5 114 -14 185
-20 33 -3 76 -7 95 -10 19 -2 69 -6 110 -10 41 -3 100 -7 130 -10 335 -26
1087 -26 1400 0 25 2 81 6 125 10 44 3 98 7 120 10 22 2 72 7 110 10 39 4 81
8 95 10 14 2 54 7 90 10 36 3 72 8 80 10 8 2 44 7 80 10 36 4 74 9 85 11 11 2
40 6 65 10 25 3 70 9 100 14 30 5 70 12 88 15 17 3 47 7 65 10 42 7 135 24
167 30 14 3 48 9 75 15 28 5 59 11 70 13 11 3 38 8 60 12 22 5 42 9 45 10 3 0
23 4 45 9 31 6 326 76 425 101 619 157 1294 428 1658 667 146 96 263 208 402
384 23 30 104 153 143 219 40 68 147 288 147 302 0 5 18 19 39 31 76 43 187
135 291 241 94 95 114 111 190 146 103 46 252 124 339 177 34 21 65 38 67 38
15 0 311 211 355 252 8 7 40 35 71 61 121 101 297 290 399 427 55 74 97 138
148 225 68 117 71 122 97 176 14 28 47 66 86 99 96 81 285 275 361 370 71 89
207 283 207 296 0 4 6 15 14 23 15 16 105 193 147 286 44 100 119 317 133 389
3 12 14 62 25 111 26 115 29 137 37 210 4 33 8 62 9 65 10 18 19 256 19 500 0
260 -5 408 -20 530 -9 78 -23 184 -29 210 -2 13 -7 42 -10 65 -4 22 -10 56
-15 75 -5 19 -12 49 -15 66 -11 66 -78 283 -122 394 -210 535 -610 988 -1162
1320 -188 113 -456 243 -656 319 -33 13 -73 29 -90 36 -16 8 -43 17 -60 21
-16 4 -34 10 -40 14 -5 4 -19 10 -30 13 -11 3 -78 24 -150 47 -71 23 -137 43
-145 46 -8 2 -76 20 -150 40 -176 47 -197 52 -250 64 -25 5 -88 19 -140 30
-140 31 -448 86 -580 105 -25 3 -70 10 -100 15 -30 5 -75 11 -100 14 -25 3
-81 9 -125 15 -44 6 -107 13 -140 16 -33 3 -76 8 -95 10 -19 3 -62 7 -95 10
-33 3 -80 8 -105 10 -25 3 -83 7 -130 10 -47 3 -105 7 -130 10 -58 6 -312 20
-549 30 -57 2 -106 6 -108 9 -3 2 16 78 40 168 41 150 56 205 58 225 1 5 5 18
10 31 5 12 11 33 13 45 2 12 13 60 25 107 11 47 22 96 25 110 3 14 7 34 10 45
10 42 46 222 51 255 3 19 10 51 15 70 5 19 11 53 15 75 3 22 16 105 30 185 13
80 26 170 30 200 3 30 8 62 10 70 2 8 7 44 10 80 4 36 8 76 10 90 4 25 10 85
19 205 17 216 13 199 65 282 63 102 119 226 141 310 9 35 21 49 83 94 378 278
608 582 691 914 30 121 40 288 23 421 -46 379 -309 768 -730 1082 -347 258
-826 477 -1310 597 -78 20 -159 40 -180 46 -38 10 -100 56 -92 68 16 27 25
457 12 611 -10 107 -13 135 -33 265 -50 319 -182 678 -354 965 -54 90 -173
265 -189 280 -4 3 -33 39 -65 80 -85 106 -332 351 -456 451 -516 416 -1162
714 -1905 879 -55 12 -109 24 -120 25 -11 2 -33 6 -50 9 -106 21 -234 41 -360
56 -140 17 -154 18 -255 26 -144 11 -158 12 -252 13 l-88 1 -21 43 c-93 185
-295 340 -517 397 -61 15 -226 32 -235 24z"/>
</g>
</svg>
