<?xml version="1.0" encoding="utf-8"?>
<!-- Generator: Adobe Illustrator 27.1.1, SVG Export Plug-In . SVG Version: 6.00 Build 0)  -->
<svg version="1.1" id="Layer_1" xmlns="http://www.w3.org/2000/svg" xmlns:xlink="http://www.w3.org/1999/xlink" x="0px" y="0px"
	 viewBox="0 0 480 480" style="enable-background:new 0 0 480 480;" xml:space="preserve">
<style type="text/css">
	.st0{stroke:#000000;stroke-width:9.3135;stroke-linecap:round;stroke-linejoin:round;stroke-miterlimit:10;}
	.st1{fill:#EBAE45;stroke:#000000;stroke-width:9.3135;stroke-linecap:round;stroke-linejoin:round;stroke-miterlimit:10;}
	.st2{fill:none;stroke:#000000;stroke-width:9.3135;stroke-linecap:round;stroke-linejoin:round;stroke-miterlimit:10;}
	.st3{fill:#E96558;stroke:#000000;stroke-width:9.3135;stroke-linecap:round;stroke-linejoin:round;stroke-miterlimit:10;}
</style>
<g>
	<path class="st0" d="M304.6,264.8c-0.4,0-0.8,0-1.2,0c4.7-14.4,8.2-29.5,9.5-44.7l0,0c0,0,0-0.1,0-0.1c0.6-7.4,0.8-14.9,0.3-22.3
		c39.9-24.5,12.9-58.8-32.4-67.4c-1.1-1-2.3-2-3.5-3c8.4-57.7-47.4-85.3-96.3-84.8c0-0.3,0-0.6,0-1c-0.5-4.6-7.2-10.6-14.5-9.9
		c-7.3,0.8-12.6,8-12.1,12.7c0.1,0.5,0.2,1,0.4,1.4c-45.7,11.9-72.7,55.7-68.9,93.9c0.2,0.3,0.3,0.7,0.5,1
		c-20.4,21.1-34.6,51.6-38.8,80.4c-3.3,22.7-0.2,45.8,8.3,67.1c5.2,13,13.1,23.7,19.7,35.8c0,0.1,0.3,0.6,0.7,1.2
		c-20.1,8.9-37,25-37.7,53.6c-1.1,45,9.8,83.4,96.7,87.8c37.8,1.9,64.7-2.7,83.5-10.8c58.5,11.5,119.7-3.9,143.4-19.2
		c8.2-5.3,15-15.4,19.2-27.6c37.5-12.7,48.3-38,48.9-59.7C430.9,317.1,427.8,267.8,304.6,264.8z"/>
	<g>
		<path class="st1" d="M315.3,245.9c-25.4-0.6-93.9,5.8-95.4,64c-1.1,45-3.2,82.8,96.7,87.8c99.9,5.1,123.4-35.2,124.2-67.3
			C441.6,298.3,438.6,248.9,315.3,245.9z"/>
		<path class="st1" d="M293.6,293.4c2.4-1.4,4.6-8.7,5.8-11c4.7-9.6,8.8-19.4,12.3-29.4c9.6-27.3,15.7-57.3,10.8-86.1
			c-11.3-66.2-87.2-98-147.7-85c-28.2,6.1-56.8,18.6-77.2,39.3c-20.8,21.1-35.2,51.9-39.4,81.1c-3.3,22.7-0.2,45.8,8.3,67.1
			c5.2,13,13.1,23.7,19.7,35.8c0.1,0.1,2.2,3.6,1.6,3.5C87.7,308.7,235.7,327.2,293.6,293.4z"/>
		<path class="st1" d="M143.6,303.6c0,0,65.6-20.7,140.1-19.1c42.8,1.6,77.5,11.1,95.1,29.3c29.9,31,18.3,88.3-6,104
			c-30.6,19.8-123.6,39.7-192.8,1.7C124.3,386.4,143.6,303.6,143.6,303.6z"/>
		<path class="st2" d="M126.7,297.1c0,0-52.3-85.9,11-144.7c54.6-46.4,175.1-56,185.9,48.8"/>
		<path class="st1" d="M144.5,295.9c-25.4-0.6-93.9,5.8-95.4,64c-1.1,45,9.8,83.4,96.7,87.8c99.9,5.1,123.4-35.2,124.2-67.3
			C270.8,348.3,267.7,298.9,144.5,295.9z"/>
		<circle cx="192.3" cy="227.7" r="9.5"/>
		<circle cx="274.2" cy="218.8" r="9.5"/>
		<path class="st1" d="M216.1,246.1c0.8,0.4,20,16.3,40.9-4"/>
		<path class="st2" d="M270.4,356.6c0,0,44.1,2.7,85.9-21.1"/>
		<path class="st2" d="M234.2,348.6c0,0,0-9.4-14.3-16.8c-17.3-8.9-52.7-16.1-97.7-14.1"/>
		<path class="st1" d="M329.9,266c27,3.3,72.9,8.2,80.2,29.7"/>
	</g>
	<g>
		<path class="st3" d="M145.4,156.3c0,0,74.6,60.5,155.8,32.8c71.9-24.5,41-69.9-13.7-78.3"/>
		<path class="st3" d="M96.4,120.9c21.2,48.7,144.9,63.6,191.1-10.1c11.3-65.6-59.2-93.3-111.4-86S92.4,79.7,96.4,120.9z"/>
		<path class="st3" d="M191.6,22.7c0.5,4.6-5.1,9.1-12.4,9.8c-7.3,0.8-13.7-2.3-14.2-7s4.8-11.9,12.1-12.7
			C184.5,12,191.1,18,191.6,22.7z"/>
		<path class="st2" d="M197.8,143.9c0,0,6.2-59.7-15-96.7"/>
		<path class="st2" d="M195.9,36.8c0,0,58.4,5.8,76.7,73.2"/>
		<path class="st2" d="M164,43.8c0,0-41.5,12.3-52.1,74.1"/>
	</g>
</g>
</svg>
