<?xml version="1.0" encoding="utf-8"?>
<!-- Generator: Adobe Illustrator 27.1.1, SVG Export Plug-In . SVG Version: 6.00 Build 0)  -->
<svg version="1.1" id="Layer_1" xmlns="http://www.w3.org/2000/svg" xmlns:xlink="http://www.w3.org/1999/xlink" x="0px" y="0px"
	 viewBox="0 0 331.2 137.5" style="enable-background:new 0 0 331.2 137.5;" xml:space="preserve">
<style type="text/css">
	.st0{fill:#E96558;stroke:#000000;stroke-width:2.8304;}
</style>
<ellipse class="st0" cx="165.6" cy="68.8" rx="164.2" ry="67.3"/>
<g>
	<path d="M72.8,60.3c-2.6-2.9-4-6.8-4-11.4c0-4.7,1.6-8.9,4.5-11.7c2.5-2.5,6-4,10.3-4c7.7,0,12.4,4.1,13.3,10.4h-7.2
		c-0.5-2.4-2.6-4.3-5.8-4.3c-5,0-7.4,4.1-7.4,9.6c0,5.5,2.9,9.6,7.6,9.6c3.9,0,6.2-2.6,6.5-5.3v-0.1h-5.6v-5.5h12.5v16.1h-5.2
		l-0.4-3.6h-0.1c-2,3.1-4.9,4.3-8.5,4.3C78.8,64.5,75.3,63,72.8,60.3z"/>
	<path d="M103.1,33.7h22.8v6.1h-15.3v5.4h13.2v5.8h-13.2v6.4h15.6v6.3h-23V33.7z"/>
	<path d="M139,40.1h-8.7v-6.3h25v6.3h-8.8v23.8H139V40.1z"/>
	<path d="M168.2,40.1h-8.7v-6.3h25v6.3h-8.8v23.8h-7.4V40.1z"/>
	<path d="M189.4,33.7h7.4v30.1h-7.4V33.7z"/>
	<path d="M203,33.7h7.5l8.9,15.1c0.5,0.8,2.1,3.8,2.1,3.8h0.1c0,0-0.1-3.6-0.1-4.7V33.7h7.3v30.1h-7.5l-8.8-14.9
		c-0.5-0.8-2.1-4-2.1-4h-0.1c0,0,0.1,3.9,0.1,4.9v14H203V33.7z"/>
	<path d="M237.8,60.3c-2.6-2.9-4-6.8-4-11.4c0-4.7,1.6-8.9,4.5-11.7c2.5-2.5,6-4,10.3-4c7.7,0,12.4,4.1,13.3,10.4h-7.2
		c-0.5-2.4-2.6-4.3-5.8-4.3c-5,0-7.4,4.1-7.4,9.6c0,5.5,2.9,9.6,7.6,9.6c3.9,0,6.2-2.6,6.5-5.3v-0.1h-5.6v-5.5h12.5v16.1h-5.2
		l-0.4-3.6h-0.1c-2,3.1-4.9,4.3-8.5,4.3C243.8,64.5,240.3,63,237.8,60.3z"/>
	<path d="M70.9,73.6h7.4V85h10.6V73.6h7.4v30.1h-7.4V91.2H78.4v12.5h-7.4V73.6z"/>
	<path d="M102.6,73.6h7.4v30.1h-7.4V73.6z"/>
	<path d="M123.7,79.9H115v-6.3h25v6.3h-8.8v23.8h-7.4V79.9z"/>
	<path d="M142.4,88.8c0-9,5.8-15.7,14.8-15.7c3.5,0,6.4,1,8.6,2.6c2.6,2,4.1,4.9,4.5,8.3h-7.4c-0.4-2.7-2.5-4.8-5.7-4.8
		c-4.9,0-7.2,4.1-7.2,9.5c0,5.5,2.8,9.5,7.2,9.5c3.3,0,5.5-2.1,5.8-5h7.4c-0.2,3-1.6,5.7-3.6,7.7c-2.3,2.2-5.4,3.4-9.6,3.4
		C148.4,104.4,142.4,97.8,142.4,88.8z"/>
	<path d="M175.2,73.6h7.4V85h10.6V73.6h7.4v30.1h-7.4V91.2h-10.6v12.5h-7.4V73.6z"/>
	<path d="M206.9,73.6h22.8v6.1h-15.3v5.4h13.2v5.8h-13.2v6.4h15.6v6.3h-23V73.6z"/>
	<path d="M235.4,73.6h12.8c8.3,0,13.9,6,13.9,15.2c0,5.3-1.8,9.5-5.2,12.1c-2.4,1.8-5.4,2.7-9.2,2.7h-12.4V73.6z M247.2,97.4
		c4.9,0,7.4-3.1,7.4-8.6c0-5.5-2.6-9-7.3-9h-4.5v17.6H247.2z"/>
</g>
</svg>
