<?xml version="1.0" encoding="utf-8"?>
<!-- Generator: Adobe Illustrator 27.1.1, SVG Export Plug-In . SVG Version: 6.00 Build 0)  -->
<svg version="1.1" id="Layer_1" xmlns="http://www.w3.org/2000/svg" xmlns:xlink="http://www.w3.org/1999/xlink" x="0px" y="0px"
	 viewBox="0 0 348 180" style="enable-background:new 0 0 348 180;" xml:space="preserve">
<style type="text/css">
	.st0{clip-path:url(#SVGID_00000044145863208146444330000000307960210001225600_);}
	.st1{fill:#EBAE45;stroke:#000000;stroke-width:3;}
</style>
<g>
	<defs>
		<rect id="SVGID_1_" x="0" y="0" width="348" height="180"/>
	</defs>
	<clipPath id="SVGID_00000122706721438963650770000013841073553863760033_">
		<use xlink:href="#SVGID_1_"  style="overflow:visible;"/>
	</clipPath>
	<g style="clip-path:url(#SVGID_00000122706721438963650770000013841073553863760033_);">
		<path class="st1" d="M344.8,90l-21.6,11.7l-1.1,0.6l0.3,1.2l7,24l-25.2-3.4l-1.5-0.2l-0.2,1.5l-3.5,25.4l-23.4-10.6l-1.5-0.7
			l-0.6,1.5l-9,24.2l-21.3-14.6l-1.4-0.9l-0.8,1.5l-12.4,22.6l-19.2-17.2l-1.2-1.1l-1,1.4l-15,21l-17.2-19.3l-1.1-1.3l-1.1,1.3
			l-17.2,19.3l-15-21l-1-1.4l-1.2,1.1l-19.2,17.2L106.8,151l-0.8-1.5l-1.4,0.9l-21.3,14.6l-9-24.2l-0.6-1.5l-1.5,0.7L49,150.7
			l-3.5-25.4l-0.2-1.5l-1.5,0.2l-25.2,3.4l7-24l0.3-1.2l-1.1-0.6L3.2,90l21.6-11.7l1.1-0.6l-0.3-1.2l-7-24L43.7,56l1.5,0.2l0.2-1.5
			l3.5-25.4L72.4,40l1.5,0.7l0.6-1.5l9-24.2l21.3,14.6l1.4,0.9l0.8-1.5l12.4-22.6l19.2,17.2l1.2,1.1l1-1.4l15-21l17.2,19.3l1.1,1.3
			l1.1-1.3l17.2-19.3l15,21l1,1.4l1.2-1.1l19.2-17.2L241.2,29l0.8,1.5l1.4-0.9L264.7,15l9,24.2l0.6,1.5l1.5-0.7L299,29.3l3.5,25.4
			l0.2,1.5l1.5-0.2l25.2-3.4l-7,24l-0.3,1.2l1.1,0.6L344.8,90z"/>
		<path d="M101.7,110.8l8.3,0l0-16.4l6.7,0c5.1,0,7.6,2.5,8,7c0.3,4.4,0.5,8.9,1.5,9.4l7.9,0l0-0.4c-1.4-0.6-1.2-5-1.8-10.8
			c-0.5-5-2.5-7.1-6.2-8.2l0-0.2c5.2-1.4,7.5-5.1,7.5-9.9c0-6.8-5.2-11.3-13.1-11.3l-18.7,0L101.7,110.8z M109.9,76.7l9,0
			c4.4,0,6.5,2.5,6.5,5.8c0,3.2-2.2,5.6-6.7,5.6l-8.8,0L109.9,76.7z M157.4,111.7c9.2,0,15.8-4.6,15.8-12.9
			c0-8.8-6.8-10.8-15.2-12.6c-6-1.3-8.9-2.3-8.9-5.6c0-2.9,2.9-4.8,7.4-4.8c4.2,0,7.4,2.1,7.9,6.2l7.9,0
			c-0.6-8.2-6.6-12.7-15.7-12.7c-9.1,0-15.6,4.2-15.6,12.2c0,8.5,6.7,10.4,14,12.1c6.2,1.4,10.1,2.2,10.1,6.2c0,3.8-3.7,5.2-7.9,5.2
			c-5.8,0-8.6-1.9-9.2-6.8l-8.1,0C140.1,106.8,146.4,111.7,157.4,111.7z M190.7,110.8l7.5,0l13.7-40.8l-8.4,0l-7.1,23.6
			c-0.8,2.6-1.8,6.5-1.8,6.5l-0.1,0c0,0-1-3.8-1.8-6.5l-7.2-23.6l-8.7,0L190.7,110.8z M218.1,110.8l8.6,0l0-14.8l10,0
			c8.6,0,13.6-5.2,13.6-12.9c0-3.8-1.4-7-3.6-9.3c-2.4-2.5-5.9-3.8-10.7-3.8l-17.9,0L218.1,110.8z M226.6,77.2l8.7,0
			c4.1,0,6.5,2.2,6.5,6c0,3.7-2.3,6.1-6.6,6.1l-8.6,0L226.6,77.2z"/>
	</g>
</g>
</svg>
