<?xml version="1.0" encoding="utf-8"?>
<!-- Generator: Adobe Illustrator 27.1.1, SVG Export Plug-In . SVG Version: 6.00 Build 0)  -->
<svg version="1.1" id="Layer_1" xmlns="http://www.w3.org/2000/svg" xmlns:xlink="http://www.w3.org/1999/xlink" x="0px" y="0px"
	 viewBox="0 0 348 180" style="enable-background:new 0 0 348 180;" xml:space="preserve">
<style type="text/css">
	.st0{clip-path:url(#SVGID_00000086674133132237290840000008457448783789555631_);}
	.st1{fill:#EBAE45;stroke:#000000;stroke-width:3;}
</style>
<g>
	<g>
		<defs>
			<rect id="SVGID_1_" width="348" height="180"/>
		</defs>
		<clipPath id="SVGID_00000093873676547335897950000016642727072504391821_">
			<use xlink:href="#SVGID_1_"  style="overflow:visible;"/>
		</clipPath>
		<g style="clip-path:url(#SVGID_00000093873676547335897950000016642727072504391821_);">
			<path class="st1" d="M344.8,90l-21.6,11.7l-1.1,0.6l0.3,1.2l7,24l-25.2-3.4l-1.5-0.2l-0.2,1.5l-3.5,25.4l-23.4-10.6l-1.5-0.7
				l-0.6,1.5l-9,24.2l-21.3-14.6l-1.4-0.9l-0.8,1.5l-12.4,22.6l-19.2-17.2l-1.2-1.1l-1,1.4l-15,21L175,158.6l-1.1-1.3l-1.1,1.3
				l-17.2,19.3l-15-21l-1-1.4l-1.2,1.1l-19.2,17.2L106.8,151l-0.8-1.5l-1.4,0.9L83.3,165l-9-24.2l-0.6-1.5l-1.5,0.7L49,150.7
				l-3.5-25.4l-0.2-1.5l-1.5,0.2l-25.2,3.4l7-24l0.3-1.2l-1.1-0.6L3.2,90l21.6-11.7l1.1-0.6l-0.3-1.2l-7-24L43.7,56l1.5,0.2l0.2-1.5
				l3.5-25.4L72.4,40l1.5,0.7l0.6-1.5l9-24.2l21.3,14.6l1.4,0.9L107,29l12.4-22.6l19.2,17.2l1.2,1.1l1-1.4l15-21L173,21.6l1.1,1.3
				l1.1-1.3l17.2-19.3l15,21l1,1.4l1.2-1.1l19.2-17.2L241.2,29l0.8,1.5l1.4-0.9L264.7,15l9,24.2l0.6,1.5l1.5-0.7L299,29.3l3.5,25.4
				l0.2,1.5l1.5-0.2l25.2-3.4l-7,24l-0.3,1.2l1.1,0.6L344.8,90z"/>
			<g>
				<g>
					<path d="M92.7,64.9c0-4.4,2.9-7.8,7.3-7.8c1.7,0,3.2,0.5,4.3,1.3c1.3,1,2,2.4,2.2,4.1h-3.7c-0.2-1.3-1.2-2.4-2.8-2.4
						c-2.4,0-3.6,2-3.6,4.7c0,2.7,1.4,4.7,3.6,4.7c1.6,0,2.7-1,2.9-2.5h3.7c-0.1,1.5-0.8,2.8-1.8,3.8c-1.1,1.1-2.7,1.7-4.8,1.7
						C95.7,72.6,92.7,69.3,92.7,64.9z"/>
					<path d="M109,57.4h3.7v11.8h6.7v3.1H109V57.4z"/>
					<path d="M121.9,57.4h3.7v14.9h-3.7V57.4z"/>
					<path d="M128.1,64.9c0-4.4,2.9-7.8,7.3-7.8c1.7,0,3.2,0.5,4.3,1.3c1.3,1,2,2.4,2.2,4.1h-3.7c-0.2-1.3-1.2-2.4-2.8-2.4
						c-2.4,0-3.6,2-3.6,4.7c0,2.7,1.4,4.7,3.6,4.7c1.6,0,2.7-1,2.9-2.5h3.7c-0.1,1.5-0.8,2.8-1.8,3.8c-1.1,1.1-2.7,1.7-4.8,1.7
						C131,72.6,128.1,69.3,128.1,64.9z"/>
					<path d="M144.4,57.4h3.7v5.4l5.1-5.4h4.4l-5.7,6l6.1,8.9h-4.3l-4.3-6.4l-1.3,1.3v5.1h-3.7V57.4z"/>
					<path d="M164.2,57.4h3.7V63h5.2v-5.7h3.7v14.9h-3.7v-6.2h-5.2v6.2h-3.7V57.4z"/>
					<path d="M179.9,57.4h11.3v3h-7.6v2.7h6.5V66h-6.5v3.2h7.7v3.1h-11.4V57.4z"/>
					<path d="M194.1,57.4h7.1c3,0,5.2,1.5,5.2,4.3c0,1.7-0.9,3-2.6,3.6v0.1c1.3,0.4,2,1.3,2.2,2.7c0.3,2,0.1,3.8,0.6,4v0.2h-3.6
						c-0.4-0.2-0.3-2-0.6-3.5c-0.2-1.4-0.9-2.1-2.5-2.1h-2.2v5.6h-3.7V57.4z M200.6,64c1.5,0,2.2-0.7,2.2-1.8c0-1.1-0.7-1.9-2.1-1.9
						h-2.9V64H200.6z"/>
					<path d="M209.2,57.4h11.3v3h-7.6v2.7h6.5V66h-6.5v3.2h7.7v3.1h-11.4V57.4z"/>
					<path d="M231.3,60.5h-4.3v-3.1h12.4v3.1h-4.4v11.8h-3.7V60.5z"/>
					<path d="M240.5,64.9c0-4.5,2.9-7.8,7.4-7.8c4.5,0,7.4,3.3,7.4,7.8c0,4.5-2.9,7.8-7.4,7.8C243.4,72.6,240.5,69.3,240.5,64.9z
						 M251.5,64.9c0-2.7-1.2-4.8-3.6-4.8c-2.4,0-3.6,2.1-3.6,4.8c0,2.7,1.2,4.8,3.6,4.8C250.3,69.6,251.5,67.6,251.5,64.9z"/>
				</g>
				<g>
					<path d="M92.7,78.8h20.7c8.6,0,15.1,4.4,15.1,12.5c0,5-2.5,8.7-7.5,10.5v0.2c3.8,1.3,5.7,3.6,6.3,7.9
						c0.9,5.7,0.3,11.1,1.8,11.7v0.5h-10.4c-1.1-0.7-1-5.7-1.6-10c-0.5-4-2.6-6.2-7.2-6.2h-6.5v16.2H92.7V78.8z M111.5,98
						c4.2,0,6.4-2,6.4-5.3c0-3.1-2.1-5.4-6.2-5.4h-8.3V98H111.5z"/>
					<path d="M134.3,108.5h10.8c0.5,4.4,3.3,6.2,8.5,6.2c3.5,0,7-1.3,7-4.5c0-3.4-3.5-4.2-9.4-5.6c-7.5-1.8-15.4-4.1-15.4-13.1
						c0-9.3,7.5-13.3,17.2-13.3c9.4,0,16.6,4.2,17.1,13.3h-10.5c-0.4-3.3-3-5.2-7-5.2c-3.8,0-6.2,1.6-6.2,4.1c0,3,3.3,3.8,9.8,5.2
						c8,1.9,15.3,4.4,15.3,13.6c0,9.1-7.7,14.1-17.7,14.1C142.1,123.1,134.5,118.1,134.3,108.5z"/>
					<path d="M174.1,78.8h11.1l6.8,22.7c1,3.3,2,7.6,2,7.6h0.1c0,0,1.1-4.4,2-7.6l6.7-22.7h10.8l-14.2,43.3h-11.1L174.1,78.8z"/>
					<path d="M219.6,78.8h19.5c5.3,0,9.1,1.5,11.8,4c2.8,2.6,4.4,6.3,4.4,10.7c0,8.3-5.8,14.2-14.6,14.2h-10.1v14.5h-10.9V78.8z
						 M238.5,99.2c3.9,0,6.1-2.3,6.1-5.8s-2.2-5.6-6.1-5.6h-7.9v11.3H238.5z"/>
				</g>
			</g>
		</g>
	</g>
</g>
</svg>
